<svg width="50" height="50" viewBox="0 0 50 50" fill="none" xmlns="http://www.w3.org/2000/svg">
<g id="sports_esports_black_24dp 1" clip-path="url(#clip0_203_175)">
<g id="Group">
<g id="Group_2">
<path id="Vector" d="M44.9559 33.5209L42.6852 17.5626C42.1019 13.4584 38.5813 10.4167 34.4357 10.4167H15.5618C11.4162 10.4167 7.89554 13.4584 7.31224 17.5626L5.04153 33.5209C4.58323 36.7293 7.06225 39.5834 10.2912 39.5834C11.7078 39.5834 13.0411 39.0209 14.041 38.0209L18.7491 33.3334H31.2484L35.9356 38.0209C36.9356 39.0209 38.2896 39.5834 39.6854 39.5834C42.9352 39.5834 45.4142 36.7293 44.9559 33.5209ZM22.9155 22.9167H18.7491V27.0834H16.6659V22.9167H12.4994V20.8334H16.6659V16.6667H18.7491V20.8334H22.9155V22.9167ZM31.2484 20.8334C30.1026 20.8334 29.1652 19.8959 29.1652 18.7501C29.1652 17.6042 30.1026 16.6667 31.2484 16.6667C32.3942 16.6667 33.3316 17.6042 33.3316 18.7501C33.3316 19.8959 32.3942 20.8334 31.2484 20.8334ZM35.4148 27.0834C34.269 27.0834 33.3316 26.1459 33.3316 25.0001C33.3316 23.8543 34.269 22.9167 35.4148 22.9167C36.5606 22.9167 37.498 23.8543 37.498 25.0001C37.498 26.1459 36.5606 27.0834 35.4148 27.0834Z" fill="#2A7AE4"/>
</g>
</g>
</g>
<defs>
<clipPath id="clip0_203_175">
<rect width="49.9972" height="50" fill="white"/>
</clipPath>
</defs>
</svg>
